<?xml version="1.0" encoding="UTF-8"?><svg id="Layer_1" xmlns="http://www.w3.org/2000/svg" viewBox="0 0 30 30"><defs><style>.cls-1{fill:#fa7f1f;}</style></defs><path class="cls-1" d="m17.5,28s-.07,0-.1-.01c-.19-.02-.37-.09-.51-.2l-8.73-6.79H2.5c-.53,0-1.04-.21-1.42-.59-.37-.37-.58-.88-.58-1.41v-8c0-.53.21-1.04.58-1.41.38-.38.89-.59,1.42-.59h5.66l8.73-6.79c.14-.11.32-.18.51-.2.03,0,.06,0,.1,0,.15,0,.3.03.44.1.17.08.31.21.41.37s.15.34.15.53v24c0,.19-.05.37-.15.53-.1.16-.24.29-.41.37-.14.06-.29.1-.44.1M2.5,11v8h5v-8H2.5m23.72,10.99c-.24,0-.48-.09-.67-.26-.19-.17-.31-.42-.33-.68-.01-.26.07-.52.24-.72,1.32-1.46,2.04-3.36,2.04-5.33s-.72-3.86-2.04-5.33c-.09-.1-.16-.22-.2-.34-.05-.12-.07-.25-.06-.39.01-.13.04-.26.09-.38.06-.12.14-.23.24-.32.1-.08.22-.15.34-.19.11-.04.21-.06.33-.06h.06c.13.01.26.04.38.1.12.06.23.14.31.24,1.64,1.83,2.55,4.21,2.55,6.67s-.91,4.84-2.55,6.67c-.17.19-.42.31-.68.32h-.05m-3.71-3.36c-.24,0-.48-.09-.66-.25-.2-.17-.32-.42-.34-.68-.02-.26.07-.52.24-.72.48-.55.75-1.25.75-1.98s-.27-1.43-.75-1.98c-.17-.2-.26-.46-.24-.72.02-.26.14-.51.34-.68.18-.16.42-.25.67-.25h.05c.26,0,.5.13.68.33.81.91,1.25,2.08,1.25,3.3s-.44,2.39-1.25,3.31c-.18.19-.42.31-.68.32h-.06"/></svg>