<?xml version="1.0" encoding="UTF-8"?><svg id="Layer_1" xmlns="http://www.w3.org/2000/svg" viewBox="0 0 30 30"><defs><style>.cls-1{fill:#fa7f1f;}</style></defs><path class="cls-1" d="m21,29h-12c-.79,0-1.56-.32-2.12-.88-.56-.56-.88-1.33-.88-2.12V4c0-.8.32-1.56.88-2.12.56-.56,1.33-.88,2.12-.88h12c.8,0,1.56.32,2.12.88.56.56.88,1.32.88,2.12v22c0,.79-.32,1.56-.88,2.12-.56.56-1.32.88-2.12.88m-13-4v1c0,.27.1.52.29.71.19.19.44.29.71.29h12c.26,0,.52-.1.71-.29.18-.19.29-.44.29-.71v-1h-14m1-22c-.27,0-.52.1-.71.29-.19.19-.29.44-.29.71v1h14v-1c0-.27-.11-.52-.29-.71-.19-.19-.45-.29-.71-.29h-12"/></svg>