<?xml version="1.0" encoding="UTF-8"?><svg id="Layer_1" xmlns="http://www.w3.org/2000/svg" viewBox="0 0 30 30"><defs><style>.cls-1{fill:#fff;}</style></defs><path class="cls-1" d="m15.12,28c-.85,0-1.69-.08-2.53-.25-2.52-.5-4.84-1.74-6.65-3.56-1.82-1.82-3.06-4.13-3.56-6.66-.5-2.52-.24-5.13.74-7.5.98-2.38,2.65-4.41,4.79-5.84,2.14-1.43,4.65-2.19,7.22-2.19,3.45,0,6.75,1.37,9.19,3.81,2.44,2.44,3.81,5.74,3.81,9.19,0,2.57-.76,5.08-2.19,7.22-1.43,2.14-3.46,3.81-5.83,4.79-1.59.66-3.28.99-4.98.99m0-24c-.72,0-1.43.07-2.14.21-2.13.43-4.1,1.47-5.63,3.01-1.54,1.54-2.59,3.5-3.01,5.63-.42,2.14-.21,4.35.62,6.36.83,2.01,2.24,3.73,4.05,4.93,1.81,1.21,3.94,1.86,6.11,1.86,2.92,0,5.71-1.16,7.78-3.23,2.06-2.06,3.22-4.85,3.22-7.77,0-2.18-.64-4.3-1.85-6.11-1.21-1.81-2.93-3.22-4.94-4.05-1.34-.56-2.77-.84-4.21-.84m1,19.94v-2.94c0-.26-.1-.52-.29-.71-.18-.18-.44-.29-.71-.29s-.52.11-.7.29c-.19.19-.3.45-.3.71v2.94c-2.03-.23-3.92-1.14-5.36-2.58-1.44-1.44-2.35-3.33-2.58-5.36h2.94c.26,0,.52-.1.71-.29.19-.19.29-.44.29-.71s-.11-.52-.29-.71c-.19-.19-.44-.29-.71-.29h-2.94c.23-2.03,1.14-3.92,2.58-5.36,1.44-1.44,3.33-2.35,5.36-2.58v2.94c0,.26.11.52.3.71.18.18.44.29.7.29s.52-.11.71-.29c.19-.19.29-.45.29-.71v-2.94c2.03.23,3.92,1.14,5.36,2.58,1.44,1.44,2.35,3.33,2.58,5.36h-2.94c-.27,0-.52.1-.71.29-.19.19-.29.44-.29.71s.1.52.29.71c.19.19.44.29.71.29h2.94c-.23,2.03-1.14,3.92-2.58,5.36-1.45,1.44-3.34,2.35-5.36,2.58"/></svg>