<?xml version="1.0" encoding="UTF-8"?><svg id="Layer_1" xmlns="http://www.w3.org/2000/svg" viewBox="0 0 30 30"><defs><style>.cls-1{fill:#fff;}</style></defs><path class="cls-1" d="m25,26.5H5c-.79,0-1.56-.32-2.12-.88-.56-.56-.88-1.33-.88-2.12v-14c0-.8.31-1.56.88-2.12.56-.56,1.33-.88,2.12-.88h3.47l1.7-2.55c.09-.14.22-.26.36-.33.15-.08.31-.12.47-.12h8c.16,0,.33.04.47.12.15.07.27.19.36.33l1.71,2.55h3.46c.8,0,1.56.32,2.12.88.56.56.88,1.32.88,2.12v14c0,.79-.32,1.56-.88,2.12-.56.56-1.33.88-2.12.88m-10-15c-.89,0-1.76.26-2.5.76-.74.49-1.32,1.2-1.66,2.02-.34.82-.43,1.72-.26,2.6.18.87.6,1.67,1.23,2.3s1.43,1.06,2.3,1.23c.29.06.58.09.88.09.59,0,1.17-.12,1.73-.34.82-.34,1.52-.92,2.02-1.66.5-.74.76-1.61.76-2.5,0-1.19-.47-2.34-1.32-3.18-.84-.85-1.99-1.32-3.18-1.32"/></svg>