<?xml version="1.0" encoding="UTF-8"?><svg id="Layer_1" xmlns="http://www.w3.org/2000/svg" viewBox="0 0 30 30"><defs><style>.cls-1{fill:#fa7f1f;}</style></defs><path class="cls-1" d="m4.04,28c-.79,0-1.57-.23-2.22-.67-.66-.44-1.17-1.07-1.48-1.8-.3-.73-.38-1.53-.22-2.31.15-.78.53-1.49,1.09-2.05.49-.48,1.09-.84,1.75-1.02.35-.1.71-.15,1.07-.15.33,0,.65.04.96.12l3.33-6.18-.11-.11c-.37-.37-.67-.81-.87-1.3-.2-.48-.3-1-.3-1.53s.1-1.04.3-1.53c.2-.49.5-.93.87-1.3.69-.69,1.61-1.1,2.58-1.17.08,0,.17,0,.26,0,.88,0,1.74.3,2.44.84.77.6,1.3,1.46,1.48,2.42.18.95,0,1.94-.48,2.78l2.52,2.52c.62-.36,1.32-.55,2.03-.55.32,0,.64.04.96.12l3.33-6.19-.12-.1c-.37-.37-.66-.81-.86-1.3-.21-.49-.31-1-.31-1.53s.1-1.05.31-1.53c.2-.49.49-.93.86-1.3.75-.75,1.77-1.17,2.83-1.17s2.08.42,2.83,1.17,1.17,1.77,1.17,2.83-.42,2.08-1.17,2.83c-.37.37-.81.67-1.3.87-.48.2-1.01.3-1.53.3-.32,0-.64-.04-.96-.12l-3.33,6.19.12.1c.53.53.9,1.2,1.06,1.93.17.73.14,1.49-.11,2.2-.24.71-.67,1.33-1.25,1.8-.59.48-1.28.77-2.03.87-.17.02-.34.03-.5.03-.58,0-1.15-.12-1.67-.36-.68-.32-1.26-.81-1.67-1.44-.41-.62-.64-1.35-.66-2.1s.17-1.48.55-2.13l-2.52-2.52c-.61.36-1.31.55-2.01.55h-.05c-.32,0-.62-.04-.93-.11l-3.32,6.18.11.1c.56.56.94,1.27,1.09,2.05.16.78.08,1.58-.23,2.31-.3.73-.81,1.36-1.47,1.8-.66.44-1.43.67-2.22.67"/></svg>