<?xml version="1.0" encoding="UTF-8"?><svg id="Layer_1" xmlns="http://www.w3.org/2000/svg" viewBox="0 0 30 30"><defs><style>.cls-1{fill:#fff;}</style></defs><path class="cls-1" d="m18.51,28s-.08,0-.11-.01c-.19-.01-.37-.09-.51-.2l-8.73-6.79H3.5c-.53,0-1.04-.21-1.41-.59-.38-.37-.59-.88-.59-1.41v-8c0-.53.21-1.04.59-1.41.37-.38.88-.59,1.41-.59h5.19l-3.93-4.33c-.09-.09-.16-.21-.21-.33-.04-.13-.06-.26-.06-.39.01-.13.04-.26.1-.38.05-.12.13-.23.23-.32.1-.09.21-.16.34-.2.11-.04.22-.06.34-.06h.05c.13.01.26.04.38.1.12.06.22.14.31.24l20,22c.09.09.16.21.21.33.04.13.06.26.06.39-.01.13-.04.26-.1.38-.05.12-.13.23-.23.32-.1.09-.21.16-.34.2-.1.04-.22.06-.34.06h-.05c-.13-.01-.26-.04-.38-.1s-.22-.14-.31-.24l-5.26-5.78v6.11c0,.19-.05.37-.15.53-.1.16-.24.29-.41.37-.14.06-.29.1-.43.1m8.99-7c-.27,0-.52-.11-.71-.29-.19-.19-.29-.45-.29-.71v-10c0-.26.1-.52.29-.71.19-.18.44-.29.71-.29s.52.11.71.29c.19.19.29.45.29.71v10c0,.26-.1.52-.29.71-.19.18-.44.29-.71.29m-4-2c-.26,0-.52-.1-.71-.29-.19-.19-.29-.44-.29-.71v-6c0-.27.1-.52.29-.71.19-.19.45-.29.71-.29s.52.1.71.29c.18.19.29.44.29.71v6c0,.27-.11.52-.29.71-.19.19-.45.29-.71.29m-5.01-5.65c-.07,0-.15,0-.22-.02-.2-.05-.37-.15-.51-.3l-4.98-5.48c-.09-.1-.16-.22-.21-.35-.04-.13-.06-.27-.05-.41.02-.14.05-.27.12-.39.07-.12.16-.23.26-.31l4.99-3.88c.14-.11.32-.19.51-.2.03-.01.07-.01.11-.01.14,0,.29.04.43.1.17.08.31.21.41.37.1.16.15.34.15.53v9.35c0,.2-.06.4-.17.57-.12.17-.28.29-.47.37-.12.04-.24.06-.37.06"/></svg>