<?xml version="1.0" encoding="UTF-8"?><svg id="Layer_1" xmlns="http://www.w3.org/2000/svg" viewBox="0 0 30 30"><defs><style>.cls-1{fill:#fa7f1f;}</style></defs><path class="cls-1" d="m15.14,28h-.01c-2.57,0-5.08-.76-7.22-2.19-2.14-1.43-3.81-3.46-4.79-5.83-.99-2.38-1.24-4.99-.74-7.52.5-2.52,1.74-4.84,3.56-6.65,1.82-1.82,4.13-3.06,6.65-3.56.84-.17,1.69-.25,2.54-.25,1.7,0,3.39.33,4.97.99,2.38.98,4.41,2.65,5.84,4.79,1.43,2.13,2.19,4.65,2.19,7.22,0,3.45-1.37,6.75-3.8,9.19-2.44,2.43-5.74,3.81-9.19,3.81m-1.5-8.15l2.19,6.12h-.01c1.56-.09,3.09-.52,4.47-1.26,1.38-.73,2.59-1.75,3.55-3l-7.32-1.33-2.88-.53m-7.67,1.24c.87,1.3,2.01,2.41,3.33,3.24,1.33.82,2.82,1.36,4.38,1.57l-3.49-9.78-4.22,4.97m19.33-10.28l-6.72,7.91,6.4,1.17c.7-1.41,1.08-2.94,1.14-4.51.05-1.57-.23-3.12-.82-4.57m-20.02-.7c-.69,1.41-1.08,2.95-1.14,4.51-.05,1.56.23,3.12.82,4.57l6.72-7.9-6.4-1.18m11.3-6.01l3.49,9.78,4.22-4.97c-.41-.61-.87-1.17-1.38-1.69-1.71-1.71-3.93-2.81-6.33-3.12m-2.15-.08c-2.67.17-5.19,1.3-7.08,3.2-.33.34-.64.69-.93,1.07l10.2,1.86-2.19-6.13"/></svg>