<?xml version="1.0" encoding="UTF-8"?><svg id="Layer_1" xmlns="http://www.w3.org/2000/svg" viewBox="0 0 30 30"><defs><style>.cls-1{fill:#fff;}</style></defs><path class="cls-1" d="m15,29c-2.92,0-5.71-1.16-7.78-3.22-2.06-2.06-3.22-4.86-3.22-7.78,0-3.92,1.82-8.09,5.25-12.03,1.54-1.79,3.28-3.39,5.17-4.79.17-.12.37-.18.57-.18s.41.06.57.18c1.9,1.4,3.64,3,5.18,4.79,3.44,3.94,5.25,8.11,5.25,12.03,0,2.92-1.16,5.72-3.22,7.78-2.06,2.06-4.86,3.22-7.78,3.22m6-11c-.21,0-.41.06-.58.18-.22.16-.36.39-.41.65-.35,2.08-2.11,3.84-4.18,4.18-.25.04-.47.18-.62.37-.15.2-.23.45-.21.7s.14.49.32.65c.18.17.43.27.68.27l.16-.02c1.45-.25,2.78-.95,3.82-1.99,1.04-1.04,1.73-2.38,1.99-3.82h0c.04-.26-.01-.53-.17-.75-.15-.22-.38-.36-.65-.41-.06-.01-.11-.01-.17-.01"/></svg>